<svg width="721" height="707" viewBox="0 0 721 707" fill="none" xmlns="http://www.w3.org/2000/svg">
<path d="M302.982 290.885C302.132 291.882 301.511 293.053 301.163 294.315C300.814 295.578 300.747 296.902 300.965 298.194C301.184 299.485 301.683 300.713 302.427 301.791C303.172 302.869 304.143 303.771 305.274 304.432L299.086 335.668L314.406 329.417L317.934 300.713C318.92 298.74 319.148 296.474 318.574 294.345C318.001 292.215 316.667 290.369 314.824 289.158C312.981 287.947 310.757 287.453 308.575 287.771C306.393 288.09 304.403 289.198 302.982 290.885Z" fill="#FFB6B6"/>
<path d="M235.557 394.01L240.312 403.295C245.795 405.537 251.875 405.858 257.563 404.206C267.252 401.466 309.826 381.672 309.826 381.672L317.16 325.295L302.397 326.041L291.124 366.573L260.916 373.31L235.557 394.01Z" fill="#3F3D56"/>
<path d="M411.644 616.822L422.052 613.499L414.189 571.777L398.83 576.68L411.644 616.822Z" fill="#FFB6B6"/>
<path d="M412.211 627.757L445.767 617.044L445.632 616.62C444.526 613.156 442.089 610.273 438.858 608.606C435.627 606.938 431.866 606.622 428.401 607.728L407.905 614.271L412.211 627.757Z" fill="#2F2E41"/>
<path d="M343.69 578.328L354.398 580.493L367.847 540.223L352.043 537.026L343.69 578.328Z" fill="#FFB6B6"/>
<path d="M338.86 588.155L373.386 595.138L373.474 594.701C374.195 591.137 373.471 587.433 371.46 584.403C369.45 581.373 366.319 579.266 362.755 578.544L341.666 574.279L338.86 588.155Z" fill="#2F2E41"/>
<path d="M242.683 465.935C242.683 465.935 242.627 483.179 279.899 493.069L332.455 520.075L405.52 605.958L426.597 587.079L356.544 498.184L322.062 466.515L314.712 445.704L304.543 432.627L260.599 431.22L242.683 465.935Z" fill="#2F2E41"/>
<path d="M365.331 570.705L386.68 495.523C387.659 492.064 387.403 488.373 385.956 485.083C384.509 481.793 381.961 479.11 378.751 477.494L324.072 450.034L314.752 445.224L298.942 450.27L315.086 475.256L350.11 496.2L337.171 558.303L365.331 570.705Z" fill="#2F2E41"/>
<path d="M266.262 364.738L248.197 350.949L219.134 357.714C219.134 357.714 202.1 388.439 216.178 417.244C230.256 446.049 243.983 474.406 243.983 474.406C243.983 474.406 278.1 428.907 304.543 432.627L266.262 364.738Z" fill="#3F3D56"/>
<path d="M304.233 454.637C303.621 453.478 302.762 452.468 301.718 451.678C300.673 450.887 299.468 450.335 298.187 450.06C296.906 449.786 295.581 449.795 294.304 450.089C293.028 450.382 291.831 450.951 290.798 451.757L264.063 434.46L264.207 451.006L289.573 464.895C291.042 466.541 293.063 467.59 295.254 467.845C297.444 468.1 299.652 467.542 301.459 466.277C303.266 465.013 304.547 463.129 305.058 460.984C305.569 458.838 305.275 456.58 304.233 454.637Z" fill="#FFB6B6"/>
<path d="M279.509 460.849L284.079 445.895L249.754 421.476L253.674 390.938L242.679 359.61L231.825 360.988L231.718 361.093C227.65 365.551 225.231 371.268 224.86 377.292C224.344 384.5 226.295 410.319 227.504 425.067C227.73 427.928 228.684 430.683 230.277 433.071C231.869 435.458 234.046 437.398 236.601 438.705L279.509 460.849Z" fill="#3F3D56"/>
<path d="M218.205 343.407C209.724 335.886 208.946 322.914 216.468 314.433C223.989 305.952 236.962 305.174 245.442 312.695C253.923 320.217 254.701 333.189 247.18 341.67C239.658 350.151 226.686 350.929 218.205 343.407Z" fill="#FFB6B6"/>
<path d="M217.082 325.021C218.195 327.794 218.873 339.113 218.873 339.113C215.874 336.453 222.422 346.385 222.422 346.385C183.267 334.282 201.415 303.774 211.951 302.608C210.838 299.835 219.271 298.383 219.271 298.383C220.818 292.61 229.591 296.817 229.591 296.817L227.591 295.044C233.251 294.705 243.588 309.231 243.588 309.231C244.041 316.778 215.969 322.247 217.082 325.021Z" fill="#2F2E41"/>
</svg>
