<svg width="1440" height="511" viewBox="0 0 1440 511" fill="none" xmlns="http://www.w3.org/2000/svg">
<path fill-rule="evenodd" clip-rule="evenodd" d="M1471.45 302.31L1389.65 327.621C1307.86 352.933 1144.28 403.556 981.161 338.807C818.04 274.059 655.381 93.9379 492.26 29.1891C329.14 -35.5597 165.558 15.0634 1.77086 116.963C-162.016 218.863 -326.008 372.039 -408.004 448.627L-490 525.215L-408.312 525.541C-326.623 525.868 -163.246 526.521 0.130606 527.174C163.507 527.828 326.884 528.481 490.261 529.134C653.638 529.787 817.015 530.441 980.392 531.094C1143.77 531.747 1307.15 532.4 1388.83 532.727L1470.52 533.054L1471.45 302.31Z" fill="url(#paint0_linear_187_711)"/>
<defs>
<linearGradient id="paint0_linear_187_711" x1="492.373" y1="0.919724" x2="491" y2="969.566" gradientUnits="userSpaceOnUse">
<stop offset="0.259031" stop-color="#415E85"/>
<stop offset="0.636319" stop-color="#3A1C6B" stop-opacity="0.65"/>
</linearGradient>
</defs>
</svg>
